<svg xmlns="http://www.w3.org/2000/svg" xmlns:xlink="http://www.w3.org/1999/xlink" width="500" zoomAndPan="magnify" viewBox="0 0 375 374.999991" height="500" preserveAspectRatio="xMidYMid meet" version="1.0"><defs><g/><clipPath id="b7062ebe0a"><path d="M 154.152344 154.753906 L 157.222656 154.753906 L 157.222656 157.824219 L 154.152344 157.824219 Z M 154.152344 154.753906 " clip-rule="nonzero"/></clipPath><clipPath id="66c087b620"><path d="M 155.609375 154.753906 C 156.300781 154.90625 156.453125 154.984375 156.609375 155.058594 C 156.761719 155.136719 156.839844 155.214844 156.914062 155.367188 C 156.992188 155.519531 157.070312 155.675781 157.144531 155.828125 C 157.222656 155.980469 157.144531 156.210938 157.144531 156.363281 C 157.144531 156.519531 157.144531 156.671875 157.070312 156.824219 C 156.992188 156.980469 156.914062 157.132812 156.839844 157.285156 C 156.761719 157.441406 156.609375 157.515625 156.453125 157.59375 C 156.300781 157.671875 156.148438 157.746094 155.992188 157.746094 C 155.839844 157.746094 155.609375 157.746094 155.457031 157.746094 C 155.304688 157.746094 155.148438 157.746094 154.996094 157.671875 C 154.84375 157.59375 154.765625 157.515625 154.613281 157.363281 C 154.535156 157.285156 154.382812 157.132812 154.304688 156.980469 C 154.226562 156.824219 154.152344 156.671875 154.152344 156.519531 C 154.152344 156.363281 154.152344 156.132812 154.152344 155.980469 C 154.152344 155.828125 154.226562 155.675781 154.304688 155.519531 C 154.382812 155.367188 154.535156 155.214844 154.613281 155.136719 C 154.765625 155.058594 154.84375 154.90625 154.996094 154.828125 C 155.148438 154.753906 155.304688 154.753906 155.457031 154.753906 C 155.609375 154.753906 155.839844 154.753906 155.992188 154.753906 C 156.148438 154.753906 156.300781 154.828125 156.453125 154.90625 C 156.609375 154.984375 156.761719 155.136719 156.839844 155.289062 C 156.914062 155.445312 156.992188 155.519531 157.070312 155.675781 C 157.144531 155.828125 157.144531 155.980469 157.144531 156.132812 C 157.144531 156.289062 157.222656 156.519531 157.144531 156.671875 C 157.070312 156.824219 156.992188 156.980469 156.914062 157.132812 C 156.839844 157.285156 156.761719 157.363281 156.609375 157.441406 C 156.453125 157.515625 156.300781 157.671875 156.148438 157.746094 C 155.992188 157.824219 155.609375 157.824219 155.609375 157.824219 C 155.609375 157.824219 155.378906 157.746094 155.304688 157.746094 C 155.148438 157.671875 155.074219 157.671875 154.917969 157.59375 C 154.84375 157.515625 154.6875 157.515625 154.613281 157.441406 C 154.535156 157.363281 154.457031 157.210938 154.382812 157.132812 C 154.304688 157.054688 154.226562 156.902344 154.226562 156.824219 C 154.152344 156.671875 154.152344 156.59375 154.152344 156.441406 C 154.152344 156.289062 154.152344 156.210938 154.152344 156.058594 C 154.152344 155.90625 154.152344 155.828125 154.226562 155.675781 C 154.226562 155.597656 154.304688 155.445312 154.382812 155.367188 C 154.457031 155.289062 154.535156 155.214844 154.613281 155.136719 C 154.6875 155.058594 154.84375 154.984375 154.917969 154.90625 C 155.074219 154.828125 155.148438 154.753906 155.304688 154.753906 C 155.378906 154.753906 155.609375 154.753906 155.609375 154.753906 " clip-rule="nonzero"/></clipPath><clipPath id="3762f6912e"><path d="M 157.453125 154.828125 L 162 154.828125 L 162 159.4375 L 157.453125 159.4375 Z M 157.453125 154.828125 " clip-rule="nonzero"/></clipPath><clipPath id="110cf34076"><path d="M 161.445312 156.441406 C 161.367188 156.980469 160.832031 157.210938 160.753906 157.363281 C 160.679688 157.515625 160.753906 157.59375 160.753906 157.746094 C 160.753906 157.902344 160.753906 157.976562 160.679688 158.132812 C 160.601562 158.207031 160.523438 158.363281 160.449219 158.4375 C 160.371094 158.515625 160.292969 158.667969 160.21875 158.746094 C 160.140625 158.820312 159.988281 158.898438 159.832031 158.976562 C 159.679688 159.050781 159.601562 159.128906 159.449219 159.128906 C 159.296875 159.128906 159.21875 159.128906 159.066406 159.128906 C 158.910156 159.128906 158.835938 159.128906 158.679688 159.128906 C 158.527344 159.128906 158.453125 159.050781 158.296875 158.976562 C 158.222656 158.898438 158.066406 158.820312 157.992188 158.746094 C 157.914062 158.667969 157.835938 158.515625 157.761719 158.4375 C 157.683594 158.285156 157.683594 158.207031 157.605469 158.054688 C 157.605469 157.902344 157.53125 157.671875 157.53125 157.671875 C 157.53125 157.671875 157.53125 157.976562 157.53125 157.976562 C 157.53125 157.976562 157.453125 157.671875 157.453125 157.515625 C 157.453125 157.363281 157.53125 157.132812 157.605469 156.980469 C 157.683594 156.824219 157.761719 156.671875 157.835938 156.519531 C 157.914062 156.363281 158.066406 156.210938 158.222656 156.132812 C 158.375 156.058594 158.527344 155.980469 158.679688 155.90625 C 158.835938 155.828125 159.066406 155.90625 159.21875 155.90625 C 159.371094 155.90625 159.601562 155.90625 159.757812 155.980469 C 159.910156 156.058594 160.0625 156.132812 160.21875 156.289062 C 160.371094 156.363281 160.449219 156.519531 160.523438 156.671875 C 160.601562 156.824219 160.753906 157.054688 160.753906 157.210938 C 160.753906 157.363281 160.753906 157.59375 160.753906 157.746094 C 160.753906 157.902344 160.679688 158.054688 160.601562 158.207031 C 160.523438 158.363281 160.449219 158.515625 160.292969 158.667969 C 160.21875 158.820312 160.0625 158.898438 159.910156 158.976562 C 159.757812 159.050781 159.527344 159.128906 159.371094 159.128906 C 159.21875 159.128906 158.988281 159.128906 158.835938 159.128906 C 158.679688 159.128906 158.453125 159.050781 158.296875 158.976562 C 158.144531 158.898438 158.066406 158.746094 157.914062 158.59375 C 157.835938 158.4375 157.683594 158.363281 157.605469 158.207031 C 157.53125 158.054688 157.53125 157.824219 157.53125 157.671875 C 157.53125 157.515625 157.453125 157.285156 157.53125 157.132812 C 157.605469 156.980469 157.683594 156.824219 157.761719 156.671875 C 157.835938 156.519531 157.914062 156.363281 158.066406 156.210938 C 158.222656 156.132812 158.375 156.058594 158.527344 155.980469 C 158.679688 155.90625 158.910156 155.90625 159.066406 155.90625 C 159.21875 155.90625 159.449219 155.828125 159.601562 155.90625 C 159.757812 155.980469 159.910156 156.058594 160.0625 156.132812 C 160.21875 156.210938 160.371094 156.363281 160.449219 156.519531 C 160.601562 156.75 160.679688 157.132812 160.753906 157.363281 C 160.753906 157.515625 160.753906 157.59375 160.753906 157.746094 C 160.753906 157.902344 160.753906 157.976562 160.679688 158.132812 C 160.601562 158.207031 160.523438 158.363281 160.449219 158.4375 C 160.371094 158.515625 160.292969 158.667969 160.21875 158.746094 C 160.140625 158.820312 159.988281 158.898438 159.832031 158.976562 C 159.679688 159.050781 159.601562 159.128906 159.449219 159.128906 C 159.296875 159.128906 159.21875 159.128906 159.066406 159.128906 C 158.910156 159.128906 158.835938 159.128906 158.679688 159.128906 C 158.527344 159.128906 158.453125 159.050781 158.296875 158.976562 C 158.222656 158.898438 158.066406 158.820312 157.992188 158.746094 C 157.914062 158.667969 157.835938 158.515625 157.761719 158.4375 C 157.683594 158.285156 157.683594 158.207031 157.605469 158.054688 C 157.605469 157.902344 157.53125 157.824219 157.53125 157.671875 C 157.605469 157.441406 158.222656 156.902344 158.296875 156.671875 C 158.375 156.519531 158.296875 156.441406 158.296875 156.289062 C 158.296875 156.210938 158.375 156.058594 158.375 155.980469 C 158.453125 155.828125 158.453125 155.75 158.527344 155.597656 C 158.605469 155.519531 158.679688 155.367188 158.757812 155.289062 C 158.835938 155.214844 158.910156 155.136719 158.988281 155.058594 C 159.066406 154.984375 159.21875 154.984375 159.371094 154.90625 C 159.527344 154.90625 159.601562 154.828125 159.757812 154.828125 C 159.910156 154.828125 159.988281 154.828125 160.140625 154.828125 C 160.21875 154.828125 160.371094 154.828125 160.449219 154.90625 C 160.601562 154.984375 160.753906 155.058594 160.832031 155.136719 C 160.910156 155.214844 160.984375 155.289062 161.0625 155.367188 C 161.140625 155.445312 161.214844 155.597656 161.292969 155.675781 C 161.367188 155.828125 161.367188 155.90625 161.367188 156.058594 C 161.367188 156.210938 161.445312 156.441406 161.445312 156.441406 " clip-rule="nonzero"/></clipPath><clipPath id="6815c1bbd1"><path d="M 156.148438 154.753906 L 159.988281 154.753906 L 159.988281 161.664062 L 156.148438 161.664062 Z M 156.148438 154.753906 " clip-rule="nonzero"/></clipPath><clipPath id="99e4e9fe3f"><path d="M 159.601562 156.363281 C 159.601562 157.441406 159.527344 159.128906 159.449219 159.667969 C 159.449219 159.820312 159.371094 159.898438 159.371094 160.050781 C 159.371094 160.203125 159.371094 160.28125 159.296875 160.433594 C 159.21875 160.511719 159.140625 160.664062 159.066406 160.742188 C 158.988281 160.820312 158.835938 160.894531 158.757812 160.972656 C 158.605469 161.050781 158.527344 161.125 158.375 161.203125 C 158.222656 161.28125 158.144531 161.28125 157.992188 161.28125 C 157.835938 161.28125 157.761719 161.28125 157.605469 161.28125 C 157.453125 161.28125 157.375 161.203125 157.222656 161.125 C 157.070312 161.050781 156.914062 161.050781 156.839844 160.972656 C 156.761719 160.894531 156.683594 160.742188 156.609375 160.664062 C 156.53125 160.589844 156.453125 160.433594 156.378906 160.359375 C 156.300781 160.203125 156.300781 160.128906 156.222656 159.972656 C 156.222656 159.820312 156.148438 159.742188 156.148438 159.589844 C 156.148438 159.4375 156.148438 159.359375 156.222656 159.207031 C 156.300781 159.050781 156.378906 158.898438 156.453125 158.746094 C 156.53125 158.59375 156.609375 158.4375 156.761719 158.363281 C 156.914062 158.207031 157.070312 158.132812 157.222656 158.054688 C 157.375 157.976562 157.605469 157.976562 157.761719 157.976562 C 157.914062 157.976562 158.144531 157.976562 158.296875 158.054688 C 158.453125 158.132812 158.605469 158.207031 158.757812 158.285156 C 158.910156 158.363281 159.066406 158.515625 159.140625 158.667969 C 159.21875 158.820312 159.296875 158.976562 159.371094 159.128906 C 159.449219 159.28125 159.449219 159.511719 159.449219 159.667969 C 159.449219 159.820312 159.449219 160.050781 159.371094 160.203125 C 159.296875 160.359375 159.21875 160.511719 159.066406 160.664062 C 158.988281 160.820312 158.835938 160.972656 158.679688 161.050781 C 158.527344 161.125 158.375 161.203125 158.222656 161.203125 C 158.066406 161.28125 157.835938 161.28125 157.683594 161.28125 C 157.53125 161.28125 157.300781 161.203125 157.144531 161.125 C 156.992188 161.050781 156.839844 160.972656 156.683594 160.820312 C 156.53125 160.742188 156.453125 160.589844 156.378906 160.433594 C 156.300781 160.28125 156.222656 160.050781 156.222656 159.898438 C 156.222656 159.742188 156.222656 159.511719 156.222656 159.359375 C 156.222656 159.207031 156.300781 159.050781 156.378906 158.898438 C 156.453125 158.746094 156.53125 158.59375 156.683594 158.4375 C 156.761719 158.285156 156.914062 158.207031 157.070312 158.132812 C 157.222656 158.054688 157.453125 157.976562 157.605469 157.976562 C 157.761719 157.976562 157.992188 157.902344 158.144531 157.976562 C 158.296875 158.054688 158.453125 158.132812 158.605469 158.207031 C 158.757812 158.285156 158.910156 158.363281 159.066406 158.515625 C 159.140625 158.667969 159.21875 158.820312 159.296875 158.976562 C 159.371094 159.128906 159.449219 159.359375 159.449219 159.511719 C 159.449219 159.589844 159.449219 159.589844 159.449219 159.667969 C 159.449219 159.742188 159.371094 159.898438 159.371094 160.050781 C 159.371094 160.203125 159.371094 160.28125 159.296875 160.433594 C 159.21875 160.511719 159.140625 160.664062 159.066406 160.742188 C 158.988281 160.820312 158.835938 160.894531 158.757812 160.972656 C 158.605469 161.050781 158.527344 161.125 158.375 161.203125 C 158.222656 161.28125 158.144531 161.28125 157.992188 161.28125 C 157.835938 161.28125 157.761719 161.28125 157.605469 161.28125 C 157.453125 161.28125 157.375 161.203125 157.222656 161.125 C 157.070312 161.050781 156.914062 161.050781 156.839844 160.972656 C 156.761719 160.894531 156.683594 160.742188 156.609375 160.664062 C 156.53125 160.589844 156.453125 160.433594 156.378906 160.359375 C 156.300781 160.203125 156.300781 160.128906 156.222656 159.972656 C 156.222656 159.820312 156.148438 159.742188 156.148438 159.589844 C 156.148438 159.050781 156.453125 157.285156 156.453125 156.75 C 156.453125 156.519531 156.453125 156.363281 156.453125 156.210938 C 156.453125 156.058594 156.53125 155.980469 156.53125 155.90625 C 156.609375 155.75 156.609375 155.675781 156.683594 155.519531 C 156.761719 155.445312 156.839844 155.289062 156.914062 155.214844 C 156.992188 155.136719 157.144531 155.058594 157.222656 154.984375 C 157.300781 154.90625 157.453125 154.828125 157.53125 154.828125 C 157.683594 154.753906 157.761719 154.753906 157.914062 154.753906 C 158.066406 154.753906 158.144531 154.753906 158.296875 154.753906 C 158.453125 154.753906 158.527344 154.753906 158.679688 154.828125 C 158.757812 154.90625 158.910156 154.984375 158.988281 155.058594 C 159.066406 155.136719 159.21875 155.214844 159.296875 155.289062 C 159.371094 155.367188 159.371094 155.519531 159.449219 155.675781 C 159.527344 155.75 159.601562 155.90625 159.601562 155.980469 C 159.601562 156.132812 159.601562 156.363281 159.601562 156.363281 " clip-rule="nonzero"/></clipPath><clipPath id="21e3a461c2"><path d="M 156.53125 155.828125 L 160 155.828125 L 160 160.433594 L 156.53125 160.433594 Z M 156.53125 155.828125 " clip-rule="nonzero"/></clipPath><clipPath id="80659f373b"><path d="M 159.757812 157.515625 C 159.757812 158.363281 159.910156 158.667969 159.910156 158.898438 C 159.910156 159.050781 159.910156 159.128906 159.832031 159.28125 C 159.757812 159.359375 159.679688 159.511719 159.601562 159.589844 C 159.527344 159.667969 159.449219 159.820312 159.371094 159.898438 C 159.296875 159.972656 159.140625 160.050781 159.066406 160.128906 C 158.910156 160.203125 158.835938 160.203125 158.679688 160.28125 C 158.527344 160.28125 158.453125 160.359375 158.296875 160.359375 C 158.144531 160.359375 158.066406 160.359375 157.914062 160.359375 C 157.761719 160.359375 157.683594 160.28125 157.53125 160.203125 C 157.453125 160.128906 157.300781 160.050781 157.222656 159.972656 C 157.144531 159.898438 156.992188 159.742188 156.914062 159.667969 C 156.839844 159.589844 156.761719 159.4375 156.761719 159.359375 C 156.683594 159.207031 156.683594 159.128906 156.683594 158.976562 C 156.683594 158.820312 156.609375 158.746094 156.609375 158.59375 C 156.609375 158.515625 156.609375 158.363281 156.683594 158.285156 C 156.761719 158.132812 156.839844 157.976562 156.914062 157.824219 C 156.992188 157.671875 157.144531 157.515625 157.300781 157.441406 C 157.453125 157.363281 157.605469 157.285156 157.761719 157.210938 C 157.914062 157.132812 158.144531 157.132812 158.296875 157.132812 C 158.453125 157.132812 158.679688 157.132812 158.835938 157.210938 C 158.988281 157.285156 159.140625 157.363281 159.296875 157.441406 C 159.449219 157.515625 159.527344 157.671875 159.601562 157.824219 C 159.679688 157.976562 159.757812 158.207031 159.832031 158.363281 C 159.910156 158.515625 159.910156 158.746094 159.910156 158.898438 C 159.910156 159.050781 159.832031 159.207031 159.757812 159.359375 C 159.679688 159.511719 159.601562 159.667969 159.449219 159.820312 C 159.371094 159.972656 159.21875 160.050781 159.066406 160.128906 C 158.910156 160.203125 158.757812 160.28125 158.605469 160.359375 C 158.453125 160.433594 158.222656 160.359375 158.066406 160.359375 C 157.914062 160.359375 157.683594 160.28125 157.53125 160.203125 C 157.375 160.128906 157.222656 160.050781 157.144531 159.898438 C 156.992188 159.742188 156.914062 159.589844 156.839844 159.4375 C 156.761719 159.28125 156.683594 159.128906 156.683594 158.976562 C 156.683594 158.820312 156.683594 158.59375 156.683594 158.4375 C 156.683594 158.285156 156.761719 158.132812 156.839844 157.976562 C 156.914062 157.824219 156.992188 157.671875 157.144531 157.515625 C 157.300781 157.363281 157.453125 157.285156 157.605469 157.210938 C 157.761719 157.132812 157.992188 157.132812 158.144531 157.132812 C 158.296875 157.132812 158.527344 157.054688 158.679688 157.132812 C 158.835938 157.210938 158.988281 157.285156 159.140625 157.363281 C 159.296875 157.441406 159.449219 157.59375 159.527344 157.746094 C 159.601562 157.902344 159.679688 158.054688 159.757812 158.207031 C 159.832031 158.363281 159.910156 158.515625 159.910156 158.667969 C 159.910156 158.746094 159.910156 158.820312 159.910156 158.898438 C 159.910156 158.976562 159.910156 159.128906 159.832031 159.28125 C 159.757812 159.359375 159.679688 159.511719 159.601562 159.589844 C 159.527344 159.667969 159.449219 159.820312 159.371094 159.898438 C 159.296875 159.972656 159.140625 160.050781 159.066406 160.128906 C 158.910156 160.203125 158.835938 160.203125 158.679688 160.28125 C 158.527344 160.28125 158.453125 160.359375 158.296875 160.359375 C 158.144531 160.359375 158.066406 160.359375 157.914062 160.359375 C 157.761719 160.359375 157.683594 160.28125 157.53125 160.203125 C 157.453125 160.128906 157.300781 160.050781 157.222656 159.972656 C 157.144531 159.898438 156.992188 159.742188 156.914062 159.667969 C 156.839844 159.589844 156.761719 159.4375 156.761719 159.359375 C 156.683594 159.207031 156.683594 159.128906 156.683594 158.976562 C 156.683594 158.820312 156.609375 158.746094 156.609375 158.59375 C 156.609375 158.363281 156.53125 157.976562 156.53125 157.746094 C 156.53125 157.515625 156.53125 157.363281 156.609375 157.210938 C 156.609375 157.054688 156.683594 156.980469 156.761719 156.824219 C 156.839844 156.75 156.839844 156.59375 156.914062 156.519531 C 156.992188 156.441406 157.070312 156.289062 157.144531 156.210938 C 157.222656 156.132812 157.375 156.058594 157.453125 155.980469 C 157.605469 155.90625 157.683594 155.828125 157.835938 155.828125 C 157.914062 155.828125 158.066406 155.828125 158.144531 155.828125 C 158.296875 155.828125 158.375 155.828125 158.527344 155.828125 C 158.679688 155.828125 158.757812 155.90625 158.910156 155.980469 C 158.988281 156.058594 159.140625 156.132812 159.21875 156.210938 C 159.296875 156.289062 159.371094 156.363281 159.449219 156.441406 C 159.527344 156.519531 159.601562 156.671875 159.679688 156.824219 C 159.757812 156.902344 159.757812 157.054688 159.757812 157.132812 C 159.757812 157.285156 159.757812 157.515625 159.757812 157.515625 " clip-rule="nonzero"/></clipPath><clipPath id="fa92da09d9"><path d="M 156.761719 155.597656 L 160.601562 155.597656 L 160.601562 161.738281 L 156.761719 161.738281 Z M 156.761719 155.597656 " clip-rule="nonzero"/></clipPath><clipPath id="0cbff8c93b"><path d="M 160.21875 157.285156 C 160.21875 158.285156 160.0625 159.359375 159.988281 159.742188 C 159.988281 159.898438 159.910156 159.972656 159.910156 160.128906 C 159.832031 160.28125 159.832031 160.359375 159.757812 160.511719 C 159.679688 160.589844 159.601562 160.742188 159.527344 160.820312 C 159.449219 160.894531 159.296875 160.972656 159.21875 161.050781 C 159.066406 161.125 158.988281 161.125 158.835938 161.203125 C 158.679688 161.203125 158.605469 161.28125 158.453125 161.28125 C 158.296875 161.28125 158.222656 161.203125 158.066406 161.203125 C 157.914062 161.203125 157.835938 161.203125 157.683594 161.125 C 157.605469 161.050781 157.453125 160.972656 157.375 160.894531 C 157.300781 160.820312 157.144531 160.664062 157.070312 160.589844 C 156.992188 160.511719 156.992188 160.359375 156.914062 160.28125 C 156.839844 160.128906 156.761719 160.050781 156.761719 159.898438 C 156.761719 159.742188 156.761719 159.511719 156.761719 159.511719 C 156.761719 159.511719 156.839844 159.128906 156.914062 158.976562 C 156.992188 158.820312 157.070312 158.667969 157.222656 158.515625 C 157.300781 158.363281 157.453125 158.285156 157.605469 158.207031 C 157.761719 158.132812 157.914062 158.054688 158.066406 158.054688 C 158.222656 158.054688 158.453125 158.054688 158.605469 158.054688 C 158.757812 158.054688 158.988281 158.132812 159.140625 158.207031 C 159.296875 158.285156 159.449219 158.4375 159.527344 158.515625 C 159.679688 158.59375 159.757812 158.746094 159.832031 158.898438 C 159.910156 159.050781 159.988281 159.28125 159.988281 159.4375 C 159.988281 159.589844 159.988281 159.820312 159.988281 159.972656 C 159.988281 160.128906 159.910156 160.28125 159.832031 160.433594 C 159.757812 160.589844 159.601562 160.742188 159.449219 160.820312 C 159.296875 160.972656 159.140625 161.050781 158.988281 161.125 C 158.835938 161.203125 158.679688 161.28125 158.527344 161.28125 C 158.375 161.28125 158.144531 161.28125 157.992188 161.203125 C 157.835938 161.125 157.683594 161.050781 157.53125 160.972656 C 157.375 160.894531 157.222656 160.820312 157.144531 160.664062 C 156.992188 160.511719 156.914062 160.359375 156.839844 160.203125 C 156.761719 160.050781 156.761719 159.820312 156.761719 159.667969 C 156.761719 159.511719 156.761719 159.28125 156.839844 159.128906 C 156.914062 158.976562 156.992188 158.820312 157.070312 158.667969 C 157.144531 158.515625 157.300781 158.363281 157.453125 158.285156 C 157.605469 158.207031 157.761719 158.132812 157.914062 158.054688 C 158.066406 157.976562 158.296875 157.976562 158.453125 157.976562 C 158.605469 157.976562 158.835938 158.054688 158.988281 158.132812 C 159.140625 158.207031 159.296875 158.285156 159.449219 158.363281 C 159.601562 158.4375 159.679688 158.59375 159.757812 158.746094 C 159.832031 158.898438 159.988281 159.128906 159.988281 159.28125 C 159.988281 159.4375 159.988281 159.589844 159.988281 159.742188 C 159.988281 159.898438 159.910156 159.972656 159.910156 160.128906 C 159.832031 160.28125 159.832031 160.359375 159.757812 160.511719 C 159.679688 160.589844 159.601562 160.742188 159.527344 160.820312 C 159.449219 160.894531 159.296875 160.972656 159.21875 161.050781 C 159.066406 161.125 158.988281 161.125 158.835938 161.203125 C 158.679688 161.203125 158.605469 161.28125 158.453125 161.28125 C 158.296875 161.28125 158.222656 161.203125 158.066406 161.203125 C 157.914062 161.203125 157.835938 161.203125 157.683594 161.125 C 157.605469 161.050781 157.453125 160.972656 157.375 160.894531 C 157.300781 160.820312 157.144531 160.664062 157.070312 160.589844 C 156.992188 160.511719 156.992188 160.359375 156.914062 160.28125 C 156.839844 160.128906 156.761719 160.050781 156.761719 159.898438 C 156.761719 159.742188 156.761719 159.667969 156.761719 159.511719 C 156.761719 159.128906 156.914062 157.976562 156.992188 157.515625 C 156.992188 157.285156 157.070312 157.210938 157.070312 157.054688 C 157.070312 156.902344 157.144531 156.824219 157.144531 156.671875 C 157.222656 156.519531 157.222656 156.363281 157.300781 156.289062 C 157.375 156.210938 157.453125 156.132812 157.53125 156.058594 C 157.605469 155.980469 157.761719 155.90625 157.835938 155.828125 C 157.992188 155.75 158.066406 155.75 158.222656 155.675781 C 158.375 155.675781 158.453125 155.597656 158.605469 155.597656 C 158.679688 155.597656 158.835938 155.597656 158.910156 155.597656 C 159.066406 155.597656 159.140625 155.675781 159.296875 155.75 C 159.371094 155.828125 159.527344 155.90625 159.601562 155.980469 C 159.679688 156.058594 159.832031 156.132812 159.910156 156.210938 C 159.988281 156.289062 159.988281 156.441406 160.0625 156.519531 C 160.140625 156.671875 160.21875 156.75 160.21875 156.902344 C 160.21875 157.054688 160.21875 157.285156 160.21875 157.285156 " clip-rule="nonzero"/></clipPath><clipPath id="7a85a7f199"><path d="M 157 154.597656 L 161 154.597656 L 161 161.507812 L 157 161.507812 Z M 157 154.597656 " clip-rule="nonzero"/></clipPath><clipPath id="18220735ee"><path d="M 160.984375 156.210938 C 160.984375 157.515625 160.832031 159.128906 160.753906 159.667969 C 160.753906 159.820312 160.753906 159.898438 160.679688 160.050781 C 160.679688 160.128906 160.601562 160.28125 160.523438 160.359375 C 160.449219 160.511719 160.371094 160.664062 160.292969 160.742188 C 160.21875 160.820312 160.140625 160.894531 160.0625 160.972656 C 159.988281 161.050781 159.832031 161.050781 159.679688 161.125 C 159.527344 161.125 159.449219 161.203125 159.296875 161.203125 C 159.140625 161.203125 159.066406 161.203125 158.910156 161.203125 C 158.757812 161.203125 158.679688 161.203125 158.527344 161.125 C 158.375 161.050781 158.222656 160.972656 158.144531 160.894531 C 158.066406 160.820312 157.992188 160.742188 157.914062 160.664062 C 157.835938 160.589844 157.761719 160.433594 157.683594 160.359375 C 157.605469 160.203125 157.53125 160.128906 157.53125 159.972656 C 157.53125 159.820312 157.53125 159.742188 157.53125 159.589844 C 157.53125 159.4375 157.53125 159.207031 157.605469 159.050781 C 157.683594 158.898438 157.761719 158.746094 157.835938 158.59375 C 157.914062 158.4375 158.066406 158.285156 158.222656 158.207031 C 158.375 158.132812 158.527344 158.054688 158.679688 158.054688 C 158.835938 157.976562 159.066406 157.976562 159.21875 157.976562 C 159.371094 157.976562 159.601562 157.976562 159.757812 158.054688 C 159.910156 158.132812 160.0625 158.207031 160.21875 158.363281 C 160.371094 158.4375 160.449219 158.59375 160.523438 158.746094 C 160.601562 158.898438 160.679688 159.050781 160.753906 159.207031 C 160.832031 159.359375 160.753906 159.589844 160.753906 159.742188 C 160.753906 159.898438 160.679688 160.128906 160.601562 160.28125 C 160.523438 160.433594 160.449219 160.589844 160.292969 160.742188 C 160.21875 160.894531 160.0625 160.972656 159.910156 161.050781 C 159.757812 161.125 159.527344 161.203125 159.371094 161.203125 C 159.21875 161.203125 158.988281 161.203125 158.835938 161.203125 C 158.679688 161.203125 158.527344 161.125 158.375 161.050781 C 158.222656 160.972656 158.066406 160.894531 157.914062 160.742188 C 157.761719 160.589844 157.683594 160.433594 157.605469 160.28125 C 157.53125 160.128906 157.53125 159.898438 157.53125 159.742188 C 157.53125 159.589844 157.453125 159.359375 157.53125 159.207031 C 157.605469 159.050781 157.683594 158.898438 157.761719 158.746094 C 157.835938 158.59375 157.914062 158.4375 158.066406 158.363281 C 158.222656 158.207031 158.375 158.132812 158.527344 158.054688 C 158.679688 157.976562 158.910156 157.976562 159.066406 157.976562 C 159.21875 157.976562 159.449219 157.976562 159.601562 158.054688 C 159.757812 158.054688 159.910156 158.132812 160.0625 158.207031 C 160.21875 158.285156 160.371094 158.4375 160.449219 158.59375 C 160.523438 158.746094 160.601562 158.898438 160.679688 159.050781 C 160.753906 159.207031 160.753906 159.511719 160.753906 159.589844 C 160.753906 159.589844 160.753906 159.667969 160.753906 159.667969 C 160.753906 159.742188 160.753906 159.898438 160.679688 160.050781 C 160.679688 160.128906 160.601562 160.28125 160.523438 160.359375 C 160.449219 160.511719 160.371094 160.664062 160.292969 160.742188 C 160.21875 160.820312 160.140625 160.894531 160.0625 160.972656 C 159.988281 161.050781 159.832031 161.050781 159.679688 161.125 C 159.527344 161.125 159.449219 161.203125 159.296875 161.203125 C 159.140625 161.203125 159.066406 161.203125 158.910156 161.203125 C 158.757812 161.203125 158.679688 161.203125 158.527344 161.125 C 158.375 161.050781 158.222656 160.972656 158.144531 160.894531 C 158.066406 160.820312 157.992188 160.742188 157.914062 160.664062 C 157.835938 160.589844 157.761719 160.433594 157.683594 160.359375 C 157.605469 160.203125 157.53125 160.128906 157.53125 159.972656 C 157.53125 159.820312 157.53125 159.742188 157.53125 159.589844 C 157.53125 159.050781 157.683594 157.441406 157.761719 156.824219 C 157.761719 156.519531 157.835938 156.289062 157.835938 156.132812 C 157.835938 155.980469 157.835938 155.90625 157.835938 155.828125 C 157.835938 155.675781 157.914062 155.597656 157.992188 155.445312 C 158.066406 155.367188 158.144531 155.214844 158.222656 155.136719 C 158.296875 155.058594 158.453125 154.984375 158.527344 154.90625 C 158.605469 154.828125 158.757812 154.753906 158.835938 154.675781 C 158.988281 154.597656 159.066406 154.597656 159.21875 154.597656 C 159.371094 154.597656 159.449219 154.597656 159.601562 154.597656 C 159.757812 154.597656 159.832031 154.675781 159.988281 154.753906 C 160.0625 154.828125 160.21875 154.828125 160.292969 154.90625 C 160.371094 154.984375 160.523438 155.058594 160.601562 155.136719 C 160.679688 155.214844 160.679688 155.367188 160.753906 155.445312 C 160.832031 155.597656 160.832031 155.675781 160.910156 155.828125 C 160.910156 155.980469 160.984375 156.210938 160.984375 156.210938 " clip-rule="nonzero"/></clipPath><clipPath id="58dce14a6b"><path d="M 157.300781 154.675781 L 161 154.675781 L 161 161.585938 L 157.300781 161.585938 Z M 157.300781 154.675781 " clip-rule="nonzero"/></clipPath><clipPath id="79fa3b615c"><path d="M 160.984375 156.132812 C 161.0625 157.132812 160.753906 159.050781 160.679688 159.589844 C 160.679688 159.742188 160.679688 159.820312 160.601562 159.972656 C 160.523438 160.128906 160.449219 160.203125 160.371094 160.359375 C 160.292969 160.433594 160.21875 160.589844 160.140625 160.664062 C 160.0625 160.742188 159.910156 160.820312 159.832031 160.894531 C 159.679688 160.972656 159.601562 160.972656 159.449219 161.050781 C 159.296875 161.050781 159.21875 161.125 159.066406 161.125 C 158.910156 161.125 158.757812 161.125 158.605469 161.050781 C 158.453125 161.050781 158.375 160.972656 158.222656 160.894531 C 158.144531 160.820312 157.992188 160.742188 157.914062 160.664062 C 157.835938 160.589844 157.683594 160.511719 157.605469 160.433594 C 157.53125 160.359375 157.53125 160.203125 157.453125 160.050781 C 157.453125 159.898438 157.375 159.820312 157.375 159.667969 C 157.375 159.511719 157.375 159.28125 157.375 159.28125 C 157.375 159.28125 157.300781 159.589844 157.300781 159.589844 C 157.300781 159.589844 157.300781 159.207031 157.375 159.050781 C 157.453125 158.898438 157.53125 158.667969 157.605469 158.515625 C 157.683594 158.363281 157.835938 158.207031 157.992188 158.132812 C 158.144531 158.054688 158.296875 157.976562 158.453125 157.902344 C 158.605469 157.824219 158.835938 157.746094 158.988281 157.746094 C 159.140625 157.746094 159.371094 157.746094 159.527344 157.824219 C 159.679688 157.902344 159.832031 157.976562 159.988281 158.054688 C 160.140625 158.132812 160.292969 158.285156 160.371094 158.4375 C 160.449219 158.59375 160.523438 158.820312 160.601562 158.976562 C 160.679688 159.128906 160.679688 159.359375 160.679688 159.511719 C 160.679688 159.667969 160.601562 159.820312 160.523438 159.972656 C 160.449219 160.128906 160.371094 160.359375 160.292969 160.511719 C 160.21875 160.664062 160.0625 160.742188 159.910156 160.820312 C 159.757812 160.894531 159.527344 160.972656 159.371094 161.050781 C 159.21875 161.125 158.988281 161.125 158.835938 161.125 C 158.679688 161.125 158.453125 161.050781 158.296875 160.972656 C 158.144531 160.894531 158.066406 160.742188 157.914062 160.664062 C 157.761719 160.511719 157.605469 160.433594 157.53125 160.28125 C 157.453125 160.128906 157.375 159.898438 157.375 159.742188 C 157.375 159.589844 157.375 159.359375 157.375 159.207031 C 157.375 159.050781 157.453125 158.820312 157.53125 158.667969 C 157.605469 158.515625 157.683594 158.4375 157.835938 158.285156 C 157.992188 158.132812 158.144531 157.976562 158.296875 157.902344 C 158.453125 157.824219 158.605469 157.746094 158.757812 157.746094 C 158.910156 157.746094 159.140625 157.824219 159.296875 157.824219 C 159.449219 157.902344 159.679688 157.902344 159.832031 157.976562 C 159.988281 158.054688 160.140625 158.132812 160.21875 158.285156 C 160.371094 158.4375 160.449219 158.59375 160.523438 158.746094 C 160.601562 158.976562 160.679688 159.359375 160.679688 159.589844 C 160.679688 159.742188 160.679688 159.820312 160.601562 159.972656 C 160.523438 160.128906 160.449219 160.203125 160.371094 160.359375 C 160.292969 160.433594 160.21875 160.589844 160.140625 160.664062 C 160.0625 160.742188 159.910156 160.820312 159.832031 160.894531 C 159.679688 160.972656 159.601562 160.972656 159.449219 161.050781 C 159.296875 161.050781 159.21875 161.125 159.066406 161.125 C 158.910156 161.125 158.757812 161.125 158.605469 161.050781 C 158.453125 161.050781 158.375 160.972656 158.222656 160.894531 C 158.144531 160.820312 157.992188 160.742188 157.914062 160.664062 C 157.835938 160.589844 157.683594 160.511719 157.605469 160.433594 C 157.53125 160.359375 157.53125 160.203125 157.453125 160.050781 C 157.453125 159.898438 157.375 159.820312 157.375 159.667969 C 157.375 159.511719 157.375 159.4375 157.375 159.28125 C 157.453125 158.820312 157.761719 157.132812 157.835938 156.671875 C 157.835938 156.519531 157.835938 156.441406 157.835938 156.289062 C 157.835938 156.132812 157.914062 156.058594 157.914062 155.90625 C 157.914062 155.75 157.914062 155.675781 157.992188 155.519531 C 158.066406 155.445312 158.144531 155.289062 158.222656 155.214844 C 158.296875 155.136719 158.375 154.984375 158.453125 154.90625 C 158.527344 154.828125 158.679688 154.828125 158.835938 154.753906 C 158.988281 154.753906 159.066406 154.675781 159.21875 154.675781 C 159.371094 154.675781 159.449219 154.675781 159.601562 154.675781 C 159.679688 154.675781 159.832031 154.753906 159.910156 154.753906 C 160.0625 154.828125 160.140625 154.828125 160.292969 154.90625 C 160.371094 154.984375 160.523438 155.058594 160.601562 155.136719 C 160.679688 155.214844 160.753906 155.367188 160.832031 155.445312 C 160.910156 155.519531 160.910156 155.675781 160.910156 155.75 C 160.910156 155.90625 160.984375 156.132812 160.984375 156.132812 " clip-rule="nonzero"/></clipPath><clipPath id="304a453e17"><path d="M 156.992188 155.367188 L 160.832031 155.367188 L 160.832031 161.507812 L 156.992188 161.507812 Z M 156.992188 155.367188 " clip-rule="nonzero"/></clipPath><clipPath id="d450facf28"><path d="M 160.523438 157.210938 C 160.371094 158.207031 160.292969 159.4375 160.21875 159.898438 C 160.21875 160.050781 160.21875 160.128906 160.140625 160.28125 C 160.0625 160.359375 159.988281 160.511719 159.910156 160.589844 C 159.832031 160.664062 159.757812 160.820312 159.679688 160.894531 C 159.601562 160.972656 159.449219 161.050781 159.371094 161.125 C 159.21875 161.203125 159.140625 161.28125 158.988281 161.28125 C 158.835938 161.28125 158.757812 161.28125 158.605469 161.28125 C 158.453125 161.28125 158.375 161.28125 158.222656 161.28125 C 158.066406 161.28125 157.992188 161.203125 157.835938 161.125 C 157.761719 161.050781 157.605469 160.972656 157.53125 160.894531 C 157.453125 160.820312 157.375 160.664062 157.300781 160.589844 C 157.222656 160.433594 157.144531 160.359375 157.070312 160.203125 C 156.992188 160.050781 156.992188 159.972656 156.992188 159.820312 C 156.992188 159.667969 156.992188 159.589844 156.992188 159.4375 C 156.992188 159.28125 157.070312 159.128906 157.144531 158.976562 C 157.222656 158.820312 157.375 158.746094 157.453125 158.59375 C 157.605469 158.4375 157.683594 158.285156 157.835938 158.207031 C 157.992188 158.132812 158.222656 158.054688 158.375 158.054688 C 158.527344 158.054688 158.679688 158.054688 158.835938 158.054688 C 158.988281 158.054688 159.21875 158.132812 159.371094 158.207031 C 159.527344 158.285156 159.679688 158.363281 159.757812 158.515625 C 159.910156 158.667969 159.988281 158.820312 160.0625 158.976562 C 160.140625 159.128906 160.21875 159.28125 160.21875 159.4375 C 160.21875 159.589844 160.21875 159.820312 160.21875 159.972656 C 160.21875 160.128906 160.140625 160.359375 160.0625 160.511719 C 159.988281 160.664062 159.832031 160.820312 159.679688 160.894531 C 159.527344 161.050781 159.371094 161.125 159.21875 161.203125 C 159.066406 161.28125 158.910156 161.28125 158.757812 161.28125 C 158.605469 161.28125 158.375 161.355469 158.222656 161.28125 C 158.066406 161.203125 157.914062 161.125 157.761719 161.050781 C 157.605469 160.972656 157.453125 160.820312 157.375 160.664062 C 157.222656 160.511719 157.144531 160.359375 157.070312 160.203125 C 156.992188 160.050781 156.992188 159.820312 156.992188 159.667969 C 156.992188 159.511719 156.992188 159.28125 157.070312 159.128906 C 157.144531 158.976562 157.222656 158.820312 157.300781 158.667969 C 157.375 158.515625 157.53125 158.4375 157.683594 158.363281 C 157.835938 158.285156 157.992188 158.207031 158.144531 158.132812 C 158.296875 158.054688 158.527344 158.054688 158.679688 158.054688 C 158.835938 158.054688 159.066406 158.054688 159.21875 158.132812 C 159.371094 158.207031 159.527344 158.285156 159.679688 158.4375 C 159.832031 158.515625 159.910156 158.667969 159.988281 158.820312 C 160.0625 158.976562 160.140625 159.128906 160.21875 159.28125 C 160.292969 159.4375 160.21875 159.742188 160.21875 159.820312 C 160.21875 159.820312 160.21875 159.898438 160.21875 159.898438 C 160.21875 159.972656 160.21875 160.128906 160.140625 160.28125 C 160.0625 160.359375 159.988281 160.511719 159.910156 160.589844 C 159.832031 160.664062 159.757812 160.820312 159.679688 160.894531 C 159.601562 160.972656 159.449219 161.050781 159.371094 161.125 C 159.21875 161.203125 159.140625 161.28125 158.988281 161.28125 C 158.835938 161.28125 158.757812 161.28125 158.605469 161.28125 C 158.453125 161.28125 158.375 161.28125 158.222656 161.28125 C 158.066406 161.28125 157.992188 161.203125 157.835938 161.125 C 157.761719 161.050781 157.605469 160.972656 157.53125 160.894531 C 157.453125 160.820312 157.375 160.664062 157.300781 160.589844 C 157.222656 160.433594 157.144531 160.359375 157.070312 160.203125 C 156.992188 160.050781 156.992188 159.972656 156.992188 159.820312 C 156.992188 159.667969 156.992188 159.589844 156.992188 159.4375 C 156.992188 158.976562 157.222656 157.746094 157.300781 157.285156 C 157.300781 157.054688 157.300781 156.902344 157.375 156.75 C 157.375 156.59375 157.453125 156.519531 157.53125 156.363281 C 157.605469 156.289062 157.605469 156.132812 157.683594 156.058594 C 157.761719 155.980469 157.835938 155.828125 157.914062 155.75 C 157.992188 155.675781 158.144531 155.597656 158.222656 155.519531 C 158.375 155.445312 158.453125 155.445312 158.605469 155.445312 C 158.757812 155.445312 158.835938 155.367188 158.988281 155.367188 C 159.140625 155.367188 159.21875 155.445312 159.371094 155.445312 C 159.527344 155.519531 159.601562 155.519531 159.757812 155.597656 C 159.832031 155.675781 159.988281 155.75 160.0625 155.828125 C 160.140625 155.90625 160.21875 155.980469 160.292969 156.058594 C 160.371094 156.132812 160.371094 156.289062 160.449219 156.441406 C 160.449219 156.59375 160.523438 156.671875 160.523438 156.824219 C 160.523438 156.980469 160.523438 157.210938 160.523438 157.210938 " clip-rule="nonzero"/></clipPath><clipPath id="f623bca24b"><path d="M 157 155.136719 L 161 155.136719 L 161 162 L 157 162 Z M 157 155.136719 " clip-rule="nonzero"/></clipPath><clipPath id="02bd4da722"><path d="M 160.910156 156.902344 C 160.753906 157.671875 160.832031 159.820312 160.753906 160.359375 C 160.753906 160.511719 160.679688 160.589844 160.679688 160.742188 C 160.679688 160.894531 160.679688 160.972656 160.601562 161.125 C 160.523438 161.203125 160.449219 161.355469 160.371094 161.433594 C 160.292969 161.507812 160.21875 161.664062 160.0625 161.738281 C 159.988281 161.816406 159.832031 161.816406 159.679688 161.894531 C 159.527344 161.894531 159.449219 161.96875 159.296875 161.96875 C 159.140625 161.96875 159.066406 161.96875 158.910156 161.96875 C 158.757812 161.96875 158.679688 161.96875 158.527344 161.894531 C 158.375 161.816406 158.296875 161.738281 158.144531 161.664062 C 158.066406 161.585938 157.914062 161.507812 157.835938 161.433594 C 157.761719 161.355469 157.683594 161.203125 157.605469 161.125 C 157.53125 160.972656 157.53125 160.894531 157.53125 160.742188 C 157.53125 160.589844 157.453125 160.511719 157.453125 160.359375 C 157.453125 160.128906 157.605469 159.667969 157.761719 159.4375 C 157.835938 159.28125 157.914062 159.128906 158.066406 159.050781 C 158.222656 158.976562 158.375 158.898438 158.527344 158.820312 C 158.679688 158.746094 158.910156 158.667969 159.066406 158.667969 C 159.21875 158.667969 159.449219 158.667969 159.601562 158.746094 C 159.757812 158.820312 159.910156 158.898438 160.0625 159.050781 C 160.21875 159.128906 160.371094 159.28125 160.449219 159.4375 C 160.523438 159.589844 160.601562 159.742188 160.679688 159.898438 C 160.753906 160.050781 160.753906 160.28125 160.753906 160.433594 C 160.753906 160.589844 160.753906 160.820312 160.679688 160.972656 C 160.601562 161.125 160.523438 161.28125 160.371094 161.433594 C 160.292969 161.585938 160.140625 161.664062 159.988281 161.738281 C 159.832031 161.816406 159.601562 161.96875 159.449219 161.96875 C 159.296875 161.96875 159.140625 161.96875 158.988281 161.96875 C 158.835938 161.96875 158.605469 161.894531 158.453125 161.816406 C 158.296875 161.738281 158.144531 161.664062 157.992188 161.585938 C 157.835938 161.433594 157.761719 161.28125 157.683594 161.125 C 157.605469 160.972656 157.53125 160.820312 157.453125 160.664062 C 157.375 160.511719 157.453125 160.28125 157.453125 160.128906 C 157.453125 159.972656 157.53125 159.742188 157.605469 159.589844 C 157.683594 159.4375 157.835938 159.28125 157.992188 159.128906 C 158.144531 158.976562 158.222656 158.898438 158.375 158.820312 C 158.527344 158.746094 158.757812 158.667969 158.910156 158.667969 C 159.066406 158.667969 159.296875 158.667969 159.449219 158.746094 C 159.601562 158.746094 159.757812 158.820312 159.910156 158.898438 C 160.0625 158.976562 160.21875 159.128906 160.371094 159.28125 C 160.449219 159.4375 160.523438 159.589844 160.601562 159.742188 C 160.679688 159.898438 160.753906 160.050781 160.753906 160.203125 C 160.753906 160.359375 160.679688 160.742188 160.679688 160.742188 C 160.679688 160.742188 160.753906 160.359375 160.753906 160.359375 C 160.753906 160.359375 160.679688 160.589844 160.679688 160.742188 C 160.679688 160.894531 160.679688 160.972656 160.601562 161.125 C 160.523438 161.203125 160.449219 161.355469 160.371094 161.433594 C 160.292969 161.507812 160.21875 161.664062 160.0625 161.738281 C 159.988281 161.816406 159.832031 161.816406 159.679688 161.894531 C 159.527344 161.894531 159.449219 161.96875 159.296875 161.96875 C 159.140625 161.96875 159.066406 161.96875 158.910156 161.96875 C 158.757812 161.96875 158.679688 161.96875 158.527344 161.894531 C 158.375 161.816406 158.296875 161.738281 158.144531 161.664062 C 158.066406 161.585938 157.914062 161.507812 157.835938 161.433594 C 157.761719 161.355469 157.683594 161.203125 157.605469 161.125 C 157.53125 160.972656 157.53125 160.894531 157.53125 160.742188 C 157.53125 160.589844 157.453125 160.589844 157.453125 160.359375 C 157.453125 159.742188 157.761719 157.285156 157.761719 156.75 C 157.761719 156.59375 157.761719 156.519531 157.761719 156.441406 C 157.761719 156.289062 157.835938 156.210938 157.914062 156.058594 C 157.992188 155.980469 157.992188 155.828125 158.066406 155.75 C 158.144531 155.675781 158.222656 155.519531 158.296875 155.445312 C 158.375 155.367188 158.527344 155.367188 158.679688 155.289062 C 158.757812 155.214844 158.910156 155.136719 158.988281 155.136719 C 159.140625 155.136719 159.21875 155.136719 159.371094 155.136719 C 159.527344 155.136719 159.601562 155.136719 159.757812 155.136719 C 159.832031 155.136719 159.988281 155.214844 160.0625 155.289062 C 160.140625 155.367188 160.292969 155.445312 160.371094 155.519531 C 160.449219 155.597656 160.601562 155.75 160.679688 155.828125 C 160.753906 155.90625 160.832031 156.058594 160.832031 156.132812 C 160.910156 156.289062 160.910156 156.363281 160.910156 156.519531 C 160.910156 156.671875 160.910156 156.902344 160.910156 156.902344 " clip-rule="nonzero"/></clipPath><clipPath id="995fc650a9"><path d="M 157.683594 153.832031 L 161.523438 153.832031 L 161.523438 162 L 157.683594 162 Z M 157.683594 153.832031 " clip-rule="nonzero"/></clipPath><clipPath id="5b2d0bfc03"><path d="M 161.214844 155.289062 C 161.292969 156.363281 161.214844 156.980469 161.214844 157.515625 C 161.214844 158.285156 161.214844 159.511719 161.140625 160.050781 C 161.140625 160.28125 161.140625 160.359375 161.0625 160.511719 C 161.0625 160.664062 160.984375 160.820312 160.910156 160.894531 C 160.832031 161.050781 160.679688 161.125 160.601562 161.203125 C 160.523438 161.28125 160.371094 161.355469 160.292969 161.433594 C 160.140625 161.507812 160.0625 161.585938 159.910156 161.585938 C 159.757812 161.664062 159.601562 161.664062 159.449219 161.664062 C 159.296875 161.664062 159.21875 161.585938 159.066406 161.585938 C 158.910156 161.507812 158.757812 161.507812 158.605469 161.433594 C 158.453125 161.355469 158.375 161.28125 158.296875 161.203125 C 158.222656 161.125 158.066406 160.972656 157.992188 160.894531 C 157.914062 160.820312 157.914062 160.664062 157.835938 160.589844 C 157.761719 160.433594 157.683594 160.28125 157.683594 160.128906 C 157.683594 159.972656 157.683594 159.898438 157.683594 159.742188 C 157.683594 159.589844 157.683594 159.4375 157.761719 159.28125 C 157.835938 159.128906 157.914062 158.976562 158.066406 158.820312 C 158.222656 158.667969 158.375 158.515625 158.527344 158.4375 C 158.679688 158.363281 158.910156 158.285156 159.066406 158.207031 C 159.21875 158.132812 159.449219 158.132812 159.601562 158.132812 C 159.757812 158.132812 159.988281 158.207031 160.140625 158.285156 C 160.292969 158.363281 160.449219 158.4375 160.601562 158.59375 C 160.753906 158.746094 160.910156 158.898438 160.984375 159.050781 C 161.0625 159.207031 161.140625 159.4375 161.140625 159.589844 C 161.140625 159.820312 161.140625 159.972656 161.140625 160.203125 C 161.140625 160.359375 161.0625 160.589844 160.984375 160.742188 C 160.910156 160.894531 160.753906 160.972656 160.601562 161.125 C 160.449219 161.28125 160.292969 161.433594 160.140625 161.507812 C 159.988281 161.585938 159.757812 161.664062 159.601562 161.664062 C 159.449219 161.664062 159.21875 161.585938 159.066406 161.585938 C 158.910156 161.507812 158.679688 161.507812 158.527344 161.433594 C 158.375 161.355469 158.222656 161.203125 158.066406 161.050781 C 157.992188 160.894531 157.914062 160.742188 157.835938 160.589844 C 157.761719 160.433594 157.683594 160.203125 157.683594 160.050781 C 157.683594 159.820312 157.683594 159.667969 157.761719 159.4375 C 157.835938 159.28125 157.914062 159.050781 157.992188 158.898438 C 158.066406 158.746094 158.222656 158.59375 158.375 158.515625 C 158.527344 158.4375 158.679688 158.363281 158.835938 158.285156 C 158.988281 158.207031 159.21875 158.132812 159.371094 158.132812 C 159.601562 158.132812 159.832031 158.132812 159.988281 158.207031 C 160.140625 158.285156 160.292969 158.363281 160.449219 158.515625 C 160.601562 158.59375 160.753906 158.746094 160.832031 158.898438 C 160.984375 159.050781 161.0625 159.28125 161.140625 159.4375 C 161.214844 159.589844 161.140625 159.898438 161.140625 159.972656 C 161.140625 159.972656 161.140625 160.050781 161.140625 160.050781 C 161.140625 160.128906 161.140625 160.359375 161.0625 160.511719 C 161.0625 160.664062 160.984375 160.820312 160.910156 160.894531 C 160.832031 161.050781 160.679688 161.125 160.601562 161.203125 C 160.523438 161.28125 160.371094 161.355469 160.292969 161.433594 C 160.140625 161.507812 160.0625 161.585938 159.910156 161.585938 C 159.757812 161.664062 159.601562 161.664062 159.449219 161.664062 C 159.296875 161.664062 159.21875 161.585938 159.066406 161.585938 C 158.910156 161.507812 158.757812 161.507812 158.605469 161.433594 C 158.453125 161.355469 158.375 161.28125 158.296875 161.203125 C 158.222656 161.125 158.066406 160.972656 157.992188 160.894531 C 157.914062 160.820312 157.914062 160.664062 157.835938 160.589844 C 157.761719 160.433594 157.683594 160.28125 157.683594 160.128906 C 157.683594 159.972656 157.683594 159.898438 157.683594 159.742188 C 157.683594 159.359375 157.761719 158.515625 157.835938 157.902344 C 157.914062 157.363281 158.066406 156.75 158.066406 156.289062 C 158.066406 155.980469 158.066406 155.828125 158.066406 155.597656 C 158.066406 155.445312 158.066406 155.367188 158.066406 155.214844 C 158.066406 155.058594 158.066406 154.984375 158.144531 154.828125 C 158.144531 154.753906 158.222656 154.597656 158.296875 154.523438 C 158.375 154.445312 158.527344 154.292969 158.605469 154.214844 C 158.679688 154.136719 158.835938 154.0625 158.910156 153.984375 C 159.066406 153.90625 159.140625 153.90625 159.296875 153.90625 C 159.449219 153.90625 159.527344 153.832031 159.679688 153.832031 C 159.832031 153.832031 159.910156 153.832031 160.0625 153.90625 C 160.140625 153.90625 160.292969 153.984375 160.371094 154.0625 C 160.449219 154.136719 160.601562 154.214844 160.679688 154.292969 C 160.753906 154.367188 160.832031 154.445312 160.910156 154.523438 C 160.984375 154.597656 161.0625 154.753906 161.140625 154.90625 C 161.214844 155.058594 161.214844 155.289062 161.214844 155.289062 " clip-rule="nonzero"/></clipPath><clipPath id="8a4a88fb06"><path d="M 157 155.289062 L 161 155.289062 L 161 162.199219 L 157 162.199219 Z M 157 155.289062 " clip-rule="nonzero"/></clipPath><clipPath id="bcd7ae6301"><path d="M 160.984375 156.902344 C 160.910156 157.824219 160.910156 158.4375 160.910156 158.976562 C 160.910156 159.511719 160.910156 160.128906 160.832031 160.511719 C 160.832031 160.742188 160.832031 160.820312 160.753906 160.972656 C 160.753906 161.125 160.679688 161.28125 160.601562 161.355469 C 160.523438 161.507812 160.371094 161.585938 160.292969 161.664062 C 160.21875 161.738281 160.0625 161.816406 159.988281 161.894531 C 159.832031 161.96875 159.757812 161.96875 159.601562 162.046875 C 159.449219 162.046875 159.371094 162.125 159.21875 162.125 C 159.066406 162.125 158.988281 162.125 158.835938 162.125 C 158.679688 162.125 158.605469 162.046875 158.453125 161.96875 C 158.296875 161.894531 158.222656 161.816406 158.066406 161.738281 C 157.992188 161.664062 157.835938 161.585938 157.761719 161.507812 C 157.683594 161.433594 157.683594 161.28125 157.605469 161.125 C 157.53125 160.972656 157.453125 160.894531 157.453125 160.742188 C 157.453125 160.589844 157.453125 160.511719 157.453125 160.359375 C 157.453125 160.203125 157.453125 160.050781 157.53125 159.898438 C 157.605469 159.742188 157.683594 159.589844 157.761719 159.4375 C 157.835938 159.28125 157.992188 159.128906 158.144531 159.050781 C 158.296875 158.976562 158.527344 158.898438 158.679688 158.820312 C 158.835938 158.746094 159.066406 158.746094 159.21875 158.746094 C 159.371094 158.746094 159.601562 158.820312 159.757812 158.898438 C 159.910156 158.976562 160.0625 159.050781 160.21875 159.128906 C 160.371094 159.28125 160.523438 159.4375 160.601562 159.589844 C 160.679688 159.742188 160.753906 159.898438 160.753906 160.050781 C 160.832031 160.203125 160.832031 160.433594 160.832031 160.589844 C 160.832031 160.742188 160.753906 160.972656 160.679688 161.125 C 160.601562 161.28125 160.523438 161.433594 160.371094 161.585938 C 160.21875 161.738281 160.0625 161.894531 159.910156 161.96875 C 159.757812 162.046875 159.527344 162.125 159.371094 162.125 C 159.21875 162.125 158.988281 162.125 158.835938 162.125 C 158.679688 162.125 158.453125 162.046875 158.296875 161.96875 C 158.144531 161.894531 157.992188 161.738281 157.914062 161.585938 C 157.761719 161.433594 157.683594 161.28125 157.605469 161.125 C 157.53125 160.972656 157.453125 160.742188 157.453125 160.589844 C 157.453125 160.433594 157.375 160.203125 157.453125 160.050781 C 157.53125 159.898438 157.605469 159.742188 157.683594 159.589844 C 157.761719 159.4375 157.835938 159.207031 157.992188 159.128906 C 158.144531 158.976562 158.375 158.976562 158.527344 158.898438 C 158.679688 158.820312 158.910156 158.746094 159.066406 158.746094 C 159.21875 158.746094 159.449219 158.746094 159.601562 158.820312 C 159.757812 158.898438 159.910156 158.976562 160.0625 159.050781 C 160.21875 159.128906 160.371094 159.28125 160.449219 159.4375 C 160.601562 159.589844 160.679688 159.742188 160.753906 159.898438 C 160.832031 160.050781 160.832031 160.359375 160.832031 160.433594 C 160.832031 160.433594 160.832031 160.511719 160.832031 160.511719 C 160.832031 160.589844 160.832031 160.820312 160.753906 160.972656 C 160.753906 161.125 160.679688 161.28125 160.601562 161.355469 C 160.523438 161.507812 160.371094 161.585938 160.292969 161.664062 C 160.21875 161.738281 160.0625 161.816406 159.988281 161.894531 C 159.832031 161.96875 159.757812 161.96875 159.601562 162.046875 C 159.449219 162.046875 159.371094 162.125 159.21875 162.125 C 159.066406 162.125 158.988281 162.125 158.835938 162.125 C 158.679688 162.125 158.605469 162.046875 158.453125 161.96875 C 158.296875 161.894531 158.222656 161.816406 158.066406 161.738281 C 157.992188 161.664062 157.835938 161.585938 157.761719 161.507812 C 157.683594 161.433594 157.683594 161.28125 157.605469 161.125 C 157.53125 160.972656 157.453125 160.894531 157.453125 160.742188 C 157.453125 160.589844 157.453125 160.511719 157.453125 160.359375 C 157.453125 159.972656 157.453125 159.28125 157.53125 158.746094 C 157.605469 158.207031 157.683594 157.59375 157.761719 157.210938 C 157.761719 156.980469 157.835938 156.902344 157.835938 156.75 C 157.835938 156.59375 157.914062 156.519531 157.914062 156.363281 C 157.992188 156.210938 157.992188 156.132812 158.066406 155.980469 C 158.144531 155.90625 158.222656 155.75 158.296875 155.675781 C 158.375 155.597656 158.527344 155.519531 158.605469 155.445312 C 158.679688 155.367188 158.835938 155.289062 158.910156 155.289062 C 159.066406 155.289062 159.140625 155.289062 159.296875 155.289062 C 159.449219 155.289062 159.527344 155.289062 159.679688 155.289062 C 159.832031 155.289062 159.910156 155.289062 160.0625 155.367188 C 160.140625 155.445312 160.292969 155.519531 160.371094 155.597656 C 160.449219 155.675781 160.523438 155.75 160.601562 155.828125 C 160.679688 155.90625 160.753906 156.058594 160.832031 156.210938 C 160.910156 156.289062 160.910156 156.441406 160.910156 156.519531 C 160.910156 156.671875 160.984375 156.902344 160.984375 156.902344 " clip-rule="nonzero"/></clipPath><clipPath id="d1f6f52041"><path d="M 157.144531 154.214844 L 160.984375 154.214844 L 160.984375 161.125 L 157.144531 161.125 Z M 157.144531 154.214844 " clip-rule="nonzero"/></clipPath><clipPath id="b149b8a7a0"><path d="M 160.601562 156.058594 C 160.601562 156.980469 160.601562 158.820312 160.523438 159.359375 C 160.523438 159.511719 160.449219 159.589844 160.449219 159.742188 C 160.371094 159.898438 160.371094 159.972656 160.292969 160.128906 C 160.21875 160.203125 160.140625 160.359375 160.0625 160.433594 C 159.988281 160.511719 159.832031 160.664062 159.757812 160.742188 C 159.679688 160.820312 159.527344 160.820312 159.449219 160.894531 C 159.296875 160.972656 159.21875 161.050781 159.066406 161.050781 C 158.910156 161.050781 158.757812 161.050781 158.605469 161.050781 C 158.453125 161.050781 158.375 160.972656 158.222656 160.894531 C 158.144531 160.820312 157.992188 160.820312 157.914062 160.742188 C 157.835938 160.664062 157.683594 160.511719 157.605469 160.433594 C 157.53125 160.359375 157.453125 160.203125 157.375 160.128906 C 157.300781 159.972656 157.300781 159.898438 157.222656 159.742188 C 157.222656 159.589844 157.144531 159.511719 157.144531 159.359375 C 157.144531 159.28125 157.222656 159.207031 157.222656 159.050781 C 157.300781 158.898438 157.300781 158.667969 157.375 158.515625 C 157.453125 158.363281 157.53125 158.207031 157.683594 158.132812 C 157.835938 157.976562 157.992188 157.902344 158.144531 157.824219 C 158.296875 157.746094 158.527344 157.671875 158.679688 157.671875 C 158.835938 157.671875 159.066406 157.746094 159.21875 157.746094 C 159.371094 157.824219 159.601562 157.824219 159.757812 157.902344 C 159.910156 157.976562 160.0625 158.132812 160.140625 158.285156 C 160.21875 158.4375 160.292969 158.59375 160.371094 158.746094 C 160.449219 158.898438 160.523438 159.128906 160.523438 159.28125 C 160.523438 159.4375 160.523438 159.667969 160.449219 159.820312 C 160.371094 159.972656 160.292969 160.128906 160.21875 160.28125 C 160.140625 160.433594 159.988281 160.589844 159.832031 160.664062 C 159.679688 160.820312 159.527344 160.894531 159.371094 160.972656 C 159.21875 161.050781 158.988281 161.050781 158.835938 161.050781 C 158.679688 161.050781 158.453125 160.972656 158.296875 160.894531 C 158.144531 160.820312 157.992188 160.742188 157.835938 160.664062 C 157.683594 160.589844 157.53125 160.433594 157.453125 160.28125 C 157.375 160.128906 157.300781 159.898438 157.222656 159.742188 C 157.144531 159.589844 157.144531 159.359375 157.144531 159.207031 C 157.144531 159.050781 157.222656 158.898438 157.300781 158.746094 C 157.375 158.59375 157.453125 158.4375 157.605469 158.285156 C 157.683594 158.132812 157.835938 157.976562 157.992188 157.902344 C 158.144531 157.824219 158.375 157.824219 158.527344 157.746094 C 158.679688 157.746094 158.910156 157.671875 159.066406 157.671875 C 159.21875 157.671875 159.449219 157.746094 159.601562 157.824219 C 159.757812 157.902344 159.910156 157.976562 159.988281 158.132812 C 160.140625 158.285156 160.21875 158.4375 160.292969 158.59375 C 160.371094 158.746094 160.523438 158.976562 160.523438 159.128906 C 160.523438 159.207031 160.523438 159.28125 160.523438 159.359375 C 160.523438 159.4375 160.449219 159.589844 160.449219 159.742188 C 160.371094 159.898438 160.371094 159.972656 160.292969 160.128906 C 160.21875 160.203125 160.140625 160.359375 160.0625 160.433594 C 159.988281 160.511719 159.832031 160.664062 159.757812 160.742188 C 159.679688 160.820312 159.527344 160.820312 159.449219 160.894531 C 159.296875 160.972656 159.21875 161.050781 159.066406 161.050781 C 158.910156 161.050781 158.757812 161.050781 158.605469 161.050781 C 158.453125 161.050781 158.375 160.972656 158.222656 160.894531 C 158.144531 160.820312 157.992188 160.820312 157.914062 160.742188 C 157.835938 160.664062 157.683594 160.511719 157.605469 160.433594 C 157.53125 160.359375 157.453125 160.203125 157.375 160.128906 C 157.300781 159.972656 157.300781 159.898438 157.222656 159.742188 C 157.222656 159.589844 157.144531 159.511719 157.144531 159.359375 C 157.144531 158.976562 157.222656 158.132812 157.300781 157.515625 C 157.375 156.980469 157.375 156.363281 157.453125 155.980469 C 157.453125 155.75 157.53125 155.675781 157.53125 155.519531 C 157.53125 155.445312 157.53125 155.289062 157.605469 155.214844 C 157.683594 155.058594 157.761719 154.90625 157.835938 154.828125 C 157.914062 154.753906 157.992188 154.675781 158.066406 154.597656 C 158.144531 154.523438 158.296875 154.445312 158.375 154.367188 C 158.527344 154.292969 158.605469 154.292969 158.757812 154.292969 C 158.910156 154.292969 158.988281 154.214844 159.140625 154.214844 C 159.296875 154.214844 159.371094 154.214844 159.527344 154.292969 C 159.601562 154.292969 159.757812 154.367188 159.832031 154.445312 C 159.910156 154.523438 160.0625 154.597656 160.140625 154.675781 C 160.21875 154.753906 160.292969 154.90625 160.371094 154.984375 C 160.449219 155.058594 160.523438 155.214844 160.523438 155.289062 C 160.601562 155.445312 160.601562 155.519531 160.601562 155.675781 C 160.601562 155.828125 160.601562 156.058594 160.601562 156.058594 " clip-rule="nonzero"/></clipPath></defs><rect x="-37.5" width="450" fill="#ffffff" y="-37.499999" height="449.999989" fill-opacity="1"/><rect x="-37.5" width="450" fill="#ffffff" y="-37.499999" height="449.999989" fill-opacity="1"/><rect x="-37.5" width="450" fill="#000000" y="-37.499999" height="449.999989" fill-opacity="1"/><g fill="#d9d9d9" fill-opacity="1"><g transform="translate(62.040079, 212.933792)"><g><path d="M 1.859375 -18.171875 L 1.859375 -21.578125 L 33.765625 -21.578125 C 34.765625 -21.578125 35.675781 -21.394531 36.5 -21.03125 C 37.320312 -20.664062 38.015625 -20.179688 38.578125 -19.578125 C 39.148438 -18.972656 39.582031 -18.289062 39.875 -17.53125 C 40.175781 -16.769531 40.328125 -15.992188 40.328125 -15.203125 C 40.328125 -14.410156 40.15625 -13.628906 39.8125 -12.859375 C 39.476562 -12.085938 38.960938 -11.398438 38.265625 -10.796875 C 37.648438 -10.242188 36.976562 -9.828125 36.25 -9.546875 C 35.519531 -9.273438 34.691406 -9.128906 33.765625 -9.109375 L 33.640625 -9.109375 L 41.5 0.03125 L 37.34375 0.03125 L 29.125 -9.078125 L 5.40625 -9.078125 L 5.40625 0.03125 L 1.875 0.03125 L 1.875 -12.4375 L 34.15625 -12.4375 C 34.894531 -12.539062 35.53125 -12.859375 36.0625 -13.390625 C 36.601562 -13.929688 36.875 -14.570312 36.875 -15.3125 C 36.875 -16.050781 36.601562 -16.691406 36.0625 -17.234375 C 35.53125 -17.773438 34.894531 -18.085938 34.15625 -18.171875 Z M 1.859375 -18.171875 "/></g></g></g><g fill="#d9d9d9" fill-opacity="1"><g transform="translate(103.842484, 212.933792)"><g><path d="M 1.859375 -3.390625 L 40.359375 -3.390625 L 40.359375 0 L 1.859375 0 Z M 40.359375 -21.625 L 40.359375 -18.265625 L 1.859375 -18.265625 L 1.859375 -21.65625 Z M 38.515625 -12.5 L 38.515625 -9.171875 L 1.859375 -9.171875 L 1.859375 -12.5 Z M 38.515625 -12.5 "/></g></g></g><g fill="#d9d9d9" fill-opacity="1"><g transform="translate(146.045956, 212.933792)"><g><path d="M 1.859375 -12.5 L 33.796875 -12.5 C 34.203125 -12.5 34.59375 -12.578125 34.96875 -12.734375 C 35.351562 -12.890625 35.6875 -13.09375 35.96875 -13.34375 C 36.25 -13.601562 36.46875 -13.90625 36.625 -14.25 C 36.789062 -14.601562 36.875 -14.976562 36.875 -15.375 C 36.875 -15.757812 36.789062 -16.125 36.625 -16.46875 C 36.46875 -16.820312 36.25 -17.128906 35.96875 -17.390625 C 35.6875 -17.648438 35.351562 -17.847656 34.96875 -17.984375 C 34.59375 -18.128906 34.203125 -18.203125 33.796875 -18.203125 L 1.859375 -18.203125 L 1.859375 -21.609375 L 33.765625 -21.609375 C 34.648438 -21.609375 35.484375 -21.453125 36.265625 -21.140625 C 37.046875 -20.828125 37.734375 -20.398438 38.328125 -19.859375 C 38.921875 -19.316406 39.390625 -18.660156 39.734375 -17.890625 C 40.085938 -17.128906 40.265625 -16.3125 40.265625 -15.4375 C 40.265625 -14.53125 40.09375 -13.691406 39.75 -12.921875 C 39.414062 -12.160156 38.953125 -11.503906 38.359375 -10.953125 C 37.765625 -10.398438 37.070312 -9.960938 36.28125 -9.640625 C 35.488281 -9.328125 34.648438 -9.171875 33.765625 -9.171875 L 5.375 -9.171875 L 5.375 -0.0625 L 1.859375 -0.0625 Z M 1.859375 -12.5 "/></g></g></g><g fill="#d9d9d9" fill-opacity="1"><g transform="translate(187.231338, 212.933792)"><g><path d="M 7.9375 -21.609375 L 34.25 -21.609375 C 35.070312 -21.609375 35.851562 -21.457031 36.59375 -21.15625 C 37.332031 -20.851562 37.976562 -20.441406 38.53125 -19.921875 C 39.09375 -19.398438 39.53125 -18.785156 39.84375 -18.078125 C 40.164062 -17.378906 40.328125 -16.628906 40.328125 -15.828125 L 40.328125 -5.703125 C 40.328125 -4.898438 40.164062 -4.148438 39.84375 -3.453125 C 39.53125 -2.753906 39.09375 -2.140625 38.53125 -1.609375 C 37.976562 -1.085938 37.332031 -0.675781 36.59375 -0.375 C 35.851562 -0.0820312 35.070312 0.0625 34.25 0.0625 L 7.9375 0.0625 C 7.09375 0.0625 6.300781 -0.0820312 5.5625 -0.375 C 4.832031 -0.675781 4.191406 -1.085938 3.640625 -1.609375 C 3.085938 -2.140625 2.648438 -2.753906 2.328125 -3.453125 C 2.015625 -4.148438 1.859375 -4.898438 1.859375 -5.703125 L 1.859375 -15.828125 C 1.859375 -16.628906 2.015625 -17.378906 2.328125 -18.078125 C 2.648438 -18.785156 3.085938 -19.398438 3.640625 -19.921875 C 4.191406 -20.441406 4.832031 -20.851562 5.5625 -21.15625 C 6.300781 -21.457031 7.09375 -21.609375 7.9375 -21.609375 Z M 7.90625 -3.359375 L 34.21875 -3.359375 C 34.59375 -3.359375 34.929688 -3.425781 35.234375 -3.5625 C 35.546875 -3.695312 35.820312 -3.867188 36.0625 -4.078125 C 36.300781 -4.296875 36.484375 -4.550781 36.609375 -4.84375 C 36.742188 -5.132812 36.8125 -5.429688 36.8125 -5.734375 L 36.8125 -15.859375 C 36.8125 -16.171875 36.742188 -16.46875 36.609375 -16.75 C 36.484375 -17.039062 36.300781 -17.296875 36.0625 -17.515625 C 35.820312 -17.734375 35.546875 -17.898438 35.234375 -18.015625 C 34.929688 -18.140625 34.59375 -18.203125 34.21875 -18.203125 L 7.90625 -18.203125 C 7.53125 -18.203125 7.1875 -18.140625 6.875 -18.015625 C 6.570312 -17.898438 6.300781 -17.734375 6.0625 -17.515625 C 5.820312 -17.296875 5.632812 -17.039062 5.5 -16.75 C 5.375 -16.46875 5.3125 -16.171875 5.3125 -15.859375 L 5.3125 -5.734375 C 5.3125 -5.429688 5.375 -5.132812 5.5 -4.84375 C 5.632812 -4.550781 5.820312 -4.296875 6.0625 -4.078125 C 6.300781 -3.867188 6.570312 -3.695312 6.875 -3.5625 C 7.1875 -3.425781 7.53125 -3.359375 7.90625 -3.359375 Z M 7.90625 -3.359375 "/></g></g></g><g fill="#d9d9d9" fill-opacity="1"><g transform="translate(229.403953, 212.933792)"><g><path d="M 1.859375 -18.171875 L 1.859375 -21.578125 L 33.765625 -21.578125 C 34.765625 -21.578125 35.675781 -21.394531 36.5 -21.03125 C 37.320312 -20.664062 38.015625 -20.179688 38.578125 -19.578125 C 39.148438 -18.972656 39.582031 -18.289062 39.875 -17.53125 C 40.175781 -16.769531 40.328125 -15.992188 40.328125 -15.203125 C 40.328125 -14.410156 40.15625 -13.628906 39.8125 -12.859375 C 39.476562 -12.085938 38.960938 -11.398438 38.265625 -10.796875 C 37.648438 -10.242188 36.976562 -9.828125 36.25 -9.546875 C 35.519531 -9.273438 34.691406 -9.128906 33.765625 -9.109375 L 33.640625 -9.109375 L 41.5 0.03125 L 37.34375 0.03125 L 29.125 -9.078125 L 5.40625 -9.078125 L 5.40625 0.03125 L 1.875 0.03125 L 1.875 -12.4375 L 34.15625 -12.4375 C 34.894531 -12.539062 35.53125 -12.859375 36.0625 -13.390625 C 36.601562 -13.929688 36.875 -14.570312 36.875 -15.3125 C 36.875 -16.050781 36.601562 -16.691406 36.0625 -17.234375 C 35.53125 -17.773438 34.894531 -18.085938 34.15625 -18.171875 Z M 1.859375 -18.171875 "/></g></g></g><g fill="#d9d9d9" fill-opacity="1"><g transform="translate(271.206344, 212.933792)"><g><path d="M 0.625 -18.203125 L 0.625 -21.609375 L 39.0625 -21.609375 L 39.0625 -18.203125 L 21.578125 -18.203125 L 21.578125 0 L 18.046875 0 L 18.046875 -18.203125 Z M 0.625 -18.203125 "/></g></g></g><g fill="#a4c639" fill-opacity="1"><g transform="translate(159.328201, 177.815177)"><g><path d="M 1.828125 -12.328125 L 37.65625 -12.328125 L 37.65625 -9 L 5.328125 -9 L 5.328125 0 L 1.859375 0 Z M 39.734375 -21.359375 L 39.734375 -18.015625 L 1.828125 -18.015625 L 1.828125 -21.328125 Z M 39.734375 -21.359375 "/></g></g></g><g fill="#a4c639" fill-opacity="1"><g transform="translate(199.657227, 177.815177)"><g><path d="M 1.828125 -21.296875 L 5.296875 -21.296875 L 5.296875 -5.65625 C 5.296875 -5.351562 5.359375 -5.054688 5.484375 -4.765625 C 5.617188 -4.484375 5.800781 -4.238281 6.03125 -4.03125 C 6.269531 -3.820312 6.535156 -3.648438 6.828125 -3.515625 C 7.117188 -3.378906 7.425781 -3.3125 7.75 -3.3125 L 33.796875 -3.3125 C 34.503906 -3.3125 35.09375 -3.546875 35.5625 -4.015625 C 36.03125 -4.484375 36.265625 -5.03125 36.265625 -5.65625 L 36.265625 -21.296875 L 39.734375 -21.296875 L 39.734375 -5.65625 C 39.734375 -4.863281 39.566406 -4.125 39.234375 -3.4375 C 38.910156 -2.75 38.472656 -2.148438 37.921875 -1.640625 C 37.378906 -1.128906 36.75 -0.726562 36.03125 -0.4375 C 35.3125 -0.144531 34.566406 0 33.796875 0 L 7.75 0 C 6.988281 0 6.25 -0.144531 5.53125 -0.4375 C 4.820312 -0.726562 4.191406 -1.128906 3.640625 -1.640625 C 3.097656 -2.148438 2.660156 -2.75 2.328125 -3.4375 C 1.992188 -4.125 1.828125 -4.863281 1.828125 -5.65625 Z M 1.828125 -21.296875 "/></g></g></g><g fill="#a4c639" fill-opacity="1"><g transform="translate(241.202818, 177.815177)"><g><path d="M 0.90625 -3.375 L 32.375 -3.375 C 32.78125 -3.375 33.164062 -3.445312 33.53125 -3.59375 C 33.894531 -3.75 34.207031 -3.953125 34.46875 -4.203125 C 34.726562 -4.460938 34.929688 -4.765625 35.078125 -5.109375 C 35.234375 -5.453125 35.3125 -5.816406 35.3125 -6.203125 C 35.3125 -6.992188 35.023438 -7.65625 34.453125 -8.1875 C 33.890625 -8.726562 33.21875 -9 32.4375 -9 L 7.296875 -9 C 6.503906 -9 5.726562 -9.148438 4.96875 -9.453125 C 4.207031 -9.765625 3.523438 -10.191406 2.921875 -10.734375 C 2.328125 -11.285156 1.847656 -11.929688 1.484375 -12.671875 C 1.117188 -13.410156 0.9375 -14.21875 0.9375 -15.09375 L 0.9375 -15.21875 C 0.9375 -16.0625 1.113281 -16.851562 1.46875 -17.59375 C 1.832031 -18.332031 2.304688 -18.976562 2.890625 -19.53125 C 3.472656 -20.082031 4.148438 -20.515625 4.921875 -20.828125 C 5.691406 -21.140625 6.503906 -21.296875 7.359375 -21.296875 L 38.8125 -21.296875 L 38.8125 -17.953125 L 7.359375 -17.953125 C 6.929688 -17.972656 6.539062 -17.914062 6.1875 -17.78125 C 5.832031 -17.644531 5.519531 -17.453125 5.25 -17.203125 C 4.976562 -16.953125 4.765625 -16.648438 4.609375 -16.296875 C 4.453125 -15.953125 4.375 -15.59375 4.375 -15.21875 C 4.375 -14.832031 4.453125 -14.460938 4.609375 -14.109375 C 4.765625 -13.765625 4.972656 -13.46875 5.234375 -13.21875 C 5.492188 -12.96875 5.804688 -12.765625 6.171875 -12.609375 C 6.535156 -12.453125 6.921875 -12.375 7.328125 -12.375 L 32.40625 -12.375 C 33.207031 -12.375 33.992188 -12.210938 34.765625 -11.890625 C 35.535156 -11.566406 36.21875 -11.128906 36.8125 -10.578125 C 37.414062 -10.035156 37.898438 -9.390625 38.265625 -8.640625 C 38.628906 -7.890625 38.8125 -7.085938 38.8125 -6.234375 C 38.8125 -5.378906 38.644531 -4.582031 38.3125 -3.84375 C 37.976562 -3.101562 37.515625 -2.445312 36.921875 -1.875 C 36.335938 -1.3125 35.65625 -0.867188 34.875 -0.546875 C 34.09375 -0.222656 33.257812 -0.0625 32.375 -0.0625 L 0.90625 -0.0625 Z M 0.90625 -3.375 "/></g></g></g><g fill="#a4c639" fill-opacity="1"><g transform="translate(280.923562, 177.815177)"><g><path d="M 1.828125 0 L 1.828125 -21.296875 L 5.328125 -21.296875 L 5.328125 0 Z M 1.828125 0 "/></g></g></g><g fill="#a4c639" fill-opacity="1"><g transform="translate(288.070859, 177.815177)"><g><path d="M 7.8125 -21.296875 L 33.765625 -21.296875 C 34.578125 -21.296875 35.347656 -21.144531 36.078125 -20.84375 C 36.804688 -20.550781 37.441406 -20.144531 37.984375 -19.625 C 38.535156 -19.113281 38.96875 -18.515625 39.28125 -17.828125 C 39.601562 -17.140625 39.765625 -16.398438 39.765625 -15.609375 L 39.765625 -5.625 C 39.765625 -4.832031 39.601562 -4.09375 39.28125 -3.40625 C 38.96875 -2.71875 38.535156 -2.113281 37.984375 -1.59375 C 37.441406 -1.082031 36.804688 -0.675781 36.078125 -0.375 C 35.347656 -0.0820312 34.578125 0.0625 33.765625 0.0625 L 7.8125 0.0625 C 6.988281 0.0625 6.210938 -0.0820312 5.484375 -0.375 C 4.765625 -0.675781 4.128906 -1.082031 3.578125 -1.59375 C 3.035156 -2.113281 2.609375 -2.71875 2.296875 -3.40625 C 1.984375 -4.09375 1.828125 -4.832031 1.828125 -5.625 L 1.828125 -15.609375 C 1.828125 -16.398438 1.984375 -17.140625 2.296875 -17.828125 C 2.609375 -18.515625 3.035156 -19.113281 3.578125 -19.625 C 4.128906 -20.144531 4.765625 -20.550781 5.484375 -20.84375 C 6.210938 -21.144531 6.988281 -21.296875 7.8125 -21.296875 Z M 7.78125 -3.3125 L 33.734375 -3.3125 C 34.097656 -3.3125 34.429688 -3.378906 34.734375 -3.515625 C 35.046875 -3.648438 35.316406 -3.820312 35.546875 -4.03125 C 35.773438 -4.238281 35.957031 -4.484375 36.09375 -4.765625 C 36.226562 -5.054688 36.296875 -5.351562 36.296875 -5.65625 L 36.296875 -15.640625 C 36.296875 -15.941406 36.226562 -16.234375 36.09375 -16.515625 C 35.957031 -16.796875 35.773438 -17.039062 35.546875 -17.25 C 35.316406 -17.46875 35.046875 -17.640625 34.734375 -17.765625 C 34.429688 -17.890625 34.097656 -17.953125 33.734375 -17.953125 L 7.78125 -17.953125 C 7.414062 -17.953125 7.082031 -17.890625 6.78125 -17.765625 C 6.476562 -17.640625 6.207031 -17.46875 5.96875 -17.25 C 5.738281 -17.039062 5.554688 -16.796875 5.421875 -16.515625 C 5.296875 -16.234375 5.234375 -15.941406 5.234375 -15.640625 L 5.234375 -5.65625 C 5.234375 -5.351562 5.296875 -5.054688 5.421875 -4.765625 C 5.554688 -4.484375 5.738281 -4.238281 5.96875 -4.03125 C 6.207031 -3.820312 6.476562 -3.648438 6.78125 -3.515625 C 7.082031 -3.378906 7.414062 -3.3125 7.78125 -3.3125 Z M 7.78125 -3.3125 "/></g></g></g><g fill="#a4c639" fill-opacity="1"><g transform="translate(329.646855, 177.815177)"><g><path d="M 1.828125 -0.15625 L 1.828125 -21.421875 L 36.328125 -5.328125 L 36.328125 -21.296875 L 39.796875 -21.296875 L 39.796875 0 C 39.796875 0 39.75 -0.0195312 39.65625 -0.0625 C 39.5625 -0.101562 39.359375 -0.195312 39.046875 -0.34375 C 38.734375 -0.5 38.25 -0.726562 37.59375 -1.03125 C 36.945312 -1.332031 36.066406 -1.75 34.953125 -2.28125 C 33.835938 -2.8125 32.441406 -3.46875 30.765625 -4.25 C 29.097656 -5.03125 27.066406 -5.976562 24.671875 -7.09375 C 22.273438 -8.207031 19.484375 -9.507812 16.296875 -11 C 13.117188 -12.488281 9.460938 -14.195312 5.328125 -16.125 L 5.328125 -0.15625 Z M 1.828125 -0.15625 "/></g></g></g><g fill="#38b6ff" fill-opacity="1"><g transform="translate(2.895827, 177.097728)"><g><path d="M 0.453125 -18.171875 L 0.421875 -21.5625 L 38.796875 -21.890625 L 38.828125 -18.5 L 21.375 -18.359375 L 21.53125 -0.1875 L 18.015625 -0.15625 L 17.859375 -18.328125 Z M 0.453125 -18.171875 "/></g></g></g><g fill="#38b6ff" fill-opacity="1"><g transform="translate(42.439872, 176.762854)"><g><path d="M 1.828125 -3.390625 L 40.265625 -3.53125 L 40.28125 -0.140625 L 1.84375 0 Z M 40.203125 -21.734375 L 40.21875 -18.375 L 1.78125 -18.234375 L 1.765625 -21.625 Z M 38.390625 -12.609375 L 38.40625 -9.28125 L 1.8125 -9.140625 L 1.796875 -12.46875 Z M 38.390625 -12.609375 "/></g></g></g><g fill="#38b6ff" fill-opacity="1"><g transform="translate(84.508643, 176.612316)"><g><path d="M 12.25 -21.546875 L 39.390625 -21.515625 L 39.375 -18.125 L 12.234375 -18.15625 C 11.335938 -18.175781 10.476562 -18.039062 9.65625 -17.75 C 8.832031 -17.46875 8.085938 -17.066406 7.421875 -16.546875 C 6.753906 -16.023438 6.179688 -15.40625 5.703125 -14.6875 C 5.234375 -13.96875 4.910156 -13.195312 4.734375 -12.375 L 4.640625 -11.953125 C 4.597656 -11.785156 4.566406 -11.609375 4.546875 -11.421875 C 4.523438 -11.234375 4.503906 -11.03125 4.484375 -10.8125 C 4.484375 -9.84375 4.679688 -8.910156 5.078125 -8.015625 C 5.472656 -7.128906 6.015625 -6.335938 6.703125 -5.640625 C 7.390625 -4.953125 8.207031 -4.398438 9.15625 -3.984375 C 10.113281 -3.578125 11.144531 -3.375 12.25 -3.375 L 39.390625 -3.34375 L 39.390625 0.015625 L 12.25 -0.015625 C 10.738281 -0.015625 9.289062 -0.289062 7.90625 -0.84375 C 6.53125 -1.40625 5.320312 -2.175781 4.28125 -3.15625 C 3.25 -4.132812 2.429688 -5.273438 1.828125 -6.578125 C 1.234375 -7.878906 0.9375 -9.289062 0.9375 -10.8125 C 0.9375 -12.3125 1.242188 -13.71875 1.859375 -15.03125 C 2.472656 -16.34375 3.296875 -17.476562 4.328125 -18.4375 C 5.367188 -19.40625 6.578125 -20.164062 7.953125 -20.71875 C 9.328125 -21.269531 10.757812 -21.546875 12.25 -21.546875 Z M 12.25 -21.546875 "/></g></g></g><g fill="#38b6ff" fill-opacity="1"><g transform="translate(124.454034, 176.655419)"><g><path d="M 1.96875 -21.546875 L 5.453125 -21.53125 L 5.40625 -12.40625 L 36.78125 -12.21875 L 36.828125 -21.34375 L 40.34375 -21.328125 L 40.21875 0.234375 L 36.703125 0.21875 L 36.75 -8.859375 L 5.375 -9.046875 L 5.328125 0.03125 L 1.84375 0.015625 Z M 1.96875 -21.546875 "/></g></g></g><g fill="#38b6ff" fill-opacity="1"><g transform="translate(166.469046, 176.923896)"><g/></g></g><path stroke-linecap="butt" transform="matrix(0.750882, -0.00281581, 0.00281248, 0.749995, 32.980549, 186.090852)" fill="none" stroke-linejoin="miter" d="M -0.000518189 1.498665 L 409.523205 1.499726 " stroke="#d9d9d9" stroke-width="3" stroke-opacity="1" stroke-miterlimit="4"/><g clip-path="url(#b7062ebe0a)"><g clip-path="url(#66c087b620)"><path fill="#000000" d="M 151.078125 151.679688 L 160.292969 151.679688 L 160.292969 160.894531 L 151.078125 160.894531 Z M 151.078125 151.679688 " fill-opacity="1" fill-rule="nonzero"/></g></g><g clip-path="url(#3762f6912e)"><g clip-path="url(#110cf34076)"><path fill="#000000" d="M 154.382812 151.757812 L 164.363281 151.757812 L 164.363281 162.507812 L 154.382812 162.507812 Z M 154.382812 151.757812 " fill-opacity="1" fill-rule="nonzero"/></g></g><g clip-path="url(#6815c1bbd1)"><g clip-path="url(#99e4e9fe3f)"><path fill="#000000" d="M 153.078125 151.679688 L 163.058594 151.679688 L 163.058594 164.734375 L 153.078125 164.734375 Z M 153.078125 151.679688 " fill-opacity="1" fill-rule="nonzero"/></g></g><g clip-path="url(#21e3a461c2)"><g clip-path="url(#80659f373b)"><path fill="#000000" d="M 153.460938 152.757812 L 162.675781 152.757812 L 162.675781 163.507812 L 153.460938 163.507812 Z M 153.460938 152.757812 " fill-opacity="1" fill-rule="nonzero"/></g></g><g clip-path="url(#fa92da09d9)"><g clip-path="url(#0cbff8c93b)"><path fill="#000000" d="M 153.691406 152.527344 L 163.671875 152.527344 L 163.671875 164.042969 L 153.691406 164.042969 Z M 153.691406 152.527344 " fill-opacity="1" fill-rule="nonzero"/></g></g><g clip-path="url(#7a85a7f199)"><g clip-path="url(#18220735ee)"><path fill="#000000" d="M 154.457031 151.527344 L 164.441406 151.527344 L 164.441406 164.582031 L 154.457031 164.582031 Z M 154.457031 151.527344 " fill-opacity="1" fill-rule="nonzero"/></g></g><g clip-path="url(#58dce14a6b)"><g clip-path="url(#79fa3b615c)"><path fill="#000000" d="M 154.226562 151.605469 L 164.210938 151.605469 L 164.210938 163.890625 L 154.226562 163.890625 Z M 154.226562 151.605469 " fill-opacity="1" fill-rule="nonzero"/></g></g><g clip-path="url(#304a453e17)"><g clip-path="url(#d450facf28)"><path fill="#000000" d="M 153.921875 152.296875 L 163.902344 152.296875 L 163.902344 164.582031 L 153.921875 164.582031 Z M 153.921875 152.296875 " fill-opacity="1" fill-rule="nonzero"/></g></g><g clip-path="url(#f623bca24b)"><g clip-path="url(#02bd4da722)"><path fill="#000000" d="M 154.382812 152.066406 L 164.363281 152.066406 L 164.363281 165.117188 L 154.382812 165.117188 Z M 154.382812 152.066406 " fill-opacity="1" fill-rule="nonzero"/></g></g><g clip-path="url(#995fc650a9)"><g clip-path="url(#5b2d0bfc03)"><path fill="#000000" d="M 154.613281 150.761719 L 164.59375 150.761719 L 164.59375 164.582031 L 154.613281 164.582031 Z M 154.613281 150.761719 " fill-opacity="1" fill-rule="nonzero"/></g></g><g clip-path="url(#8a4a88fb06)"><g clip-path="url(#bcd7ae6301)"><path fill="#000000" d="M 154.382812 152.21875 L 164.363281 152.21875 L 164.363281 165.273438 L 154.382812 165.273438 Z M 154.382812 152.21875 " fill-opacity="1" fill-rule="nonzero"/></g></g><g clip-path="url(#d1f6f52041)"><g clip-path="url(#b149b8a7a0)"><path fill="#000000" d="M 154.074219 151.144531 L 164.054688 151.144531 L 164.054688 164.195312 L 154.074219 164.195312 Z M 154.074219 151.144531 " fill-opacity="1" fill-rule="nonzero"/></g></g></svg>