<?xml version="1.0" standalone="no"?>
<!DOCTYPE svg PUBLIC "-//W3C//DTD SVG 20010904//EN"
 "http://www.w3.org/TR/2001/REC-SVG-20010904/DTD/svg10.dtd">
<svg version="1.0" xmlns="http://www.w3.org/2000/svg"
 width="720.000000pt" height="161.000000pt" viewBox="0 0 720.000000 161.000000"
 preserveAspectRatio="xMidYMid meet">
<metadata>
Created by potrace 1.16, written by Peter Selinger 2001-2019
</metadata>
<g transform="translate(0.000000,161.000000) scale(0.100000,-0.100000)"
fill="#000000" stroke="none">
<path d="M0 805 l0 -805 3600 0 3600 0 0 805 0 805 -3600 0 -3600 0 0 -805z
m1194 154 c49 -22 66 -96 33 -140 -27 -35 -53 -39 -271 -39 l-216 0 0 -65 c0
-63 -1 -65 -25 -65 -25 0 -25 1 -25 90 l0 90 239 0 c204 0 242 2 255 16 9 8
16 22 16 29 0 7 -7 21 -16 29 -13 14 -51 16 -255 16 l-239 0 0 25 0 25 240 0
c157 0 248 -4 264 -11z m1238 -17 c21 -21 23 -31 23 -133 0 -109 0 -111 -28
-135 -28 -24 -30 -24 -243 -24 -286 0 -283 -1 -283 160 0 163 -4 161 286 157
217 -2 223 -3 245 -25z m529 2 c125 -58 128 -219 5 -275 -36 -16 -68 -19 -253
-19 l-213 0 0 25 0 25 210 0 c169 0 217 3 240 15 32 17 60 61 60 95 0 34 -28
78 -60 95 -23 12 -71 15 -240 15 l-210 0 0 26 0 25 208 -3 c186 -3 212 -5 253
-24z m189 -97 c0 -82 4 -127 12 -135 17 -17 419 -17 436 0 8 8 12 53 12 135
l0 123 26 0 26 0 -4 -135 c-4 -191 13 -179 -272 -183 l-223 -3 -32 26 -31 27
0 134 0 134 25 0 25 0 0 -123z m1460 98 l0 -25 -125 0 -125 0 0 -135 0 -135
-25 0 -25 0 0 135 0 136 -251 -3 -251 -3 -29 -33 c-40 -45 -40 -99 0 -144 l29
-33 226 -3 226 -3 0 -25 0 -24 -215 0 c-235 0 -261 5 -309 56 -35 39 -50 93
-37 142 11 41 60 95 101 111 15 6 183 10 418 10 l392 1 0 -25z m304 -96 c60
-66 110 -118 111 -117 1 2 50 56 109 121 98 106 111 117 143 117 l34 0 -137
-152 c-76 -84 -141 -157 -144 -161 -4 -4 -62 54 -130 130 -68 76 -132 148
-143 161 l-20 22 34 0 c31 -1 45 -12 143 -121z m1076 96 l0 -25 -130 0 -130 0
0 -135 0 -135 -25 0 -25 0 0 135 0 135 -125 0 -125 0 0 25 0 25 280 0 280 0 0
-25z m-4191 0 c67 -34 61 -122 -9 -154 l-37 -16 54 -60 53 -60 -27 -3 c-23 -3
-37 7 -88 62 l-60 67 -172 -1 -173 0 0 -65 c0 -63 -1 -65 -25 -65 -25 0 -25 1
-25 90 l0 90 246 2 c222 3 248 5 258 21 8 12 8 22 0 35 -10 15 -36 17 -258 20
l-246 2 0 25 0 25 240 0 c191 0 247 -3 269 -15z m2901 -140 l0 -155 -25 0 -25
0 0 155 0 155 25 0 25 0 0 -155z m690 0 l0 -155 -25 0 -25 0 0 155 0 155 25 0
25 0 0 -155z m800 95 c49 -33 92 -60 95 -60 3 0 46 27 95 60 74 50 96 60 132
60 l42 0 -122 -82 -122 -83 0 -72 c0 -71 -1 -73 -25 -73 -24 0 -25 2 -25 73
l0 72 -120 79 c-66 43 -120 80 -120 82 0 2 18 4 40 4 33 0 58 -11 130 -60z"/>
<path d="M1963 913 c-9 -3 -13 -34 -13 -103 0 -80 3 -99 16 -104 31 -12 419
-7 432 6 16 16 16 180 0 196 -9 9 -70 12 -217 11 -114 0 -212 -3 -218 -6z"/>
</g>
</svg>
